<svg width="708" height="664" viewBox="0 0 708 664" fill="none" xmlns="http://www.w3.org/2000/svg">
<path d="M68.0855 559.362L61.8501 536.367C50.7943 531.985 39.4831 528.191 27.9703 525.001L27.1833 535.688L23.9914 523.914C9.71346 520.097 0 518.418 0 518.418C0 518.418 13.1173 565.07 40.639 600.736L72.7042 606.003L47.7936 609.362C51.2556 613.257 54.976 616.944 58.9329 620.402C98.9645 655.147 143.553 671.088 158.523 656.007C173.493 640.926 153.176 600.536 113.145 565.795C100.734 555.023 85.1447 546.38 69.5389 539.575L68.0855 559.362Z" fill="#F2F2F2"/>
<path d="M127.385 534.385L134.759 511.687C127.718 502.593 120.133 493.877 112.042 485.582L105.46 494.35L109.236 482.728C99.1212 472.564 91.7346 466.432 91.7346 466.432C91.7346 466.432 77.1772 512.709 81.0173 556.542L105.555 576.548L82.37 567.383C83.1812 572.391 84.3285 577.347 85.8052 582.221C100.867 631.312 130.224 666.509 151.376 660.835C172.527 655.161 177.464 610.765 162.402 561.673C157.733 546.455 149.165 531.52 139.567 518.154L127.385 534.385Z" fill="#F2F2F2"/>
<path d="M494.039 157.302H490.149V57.6679C490.149 50.0948 488.554 42.5959 485.455 35.5993C482.355 28.6028 477.812 22.2455 472.086 16.8905C466.359 11.5356 459.56 7.28779 452.077 4.3897C444.595 1.49162 436.575 0 428.476 0H202.719C186.362 0 170.675 6.07571 159.109 16.8905C147.543 27.7054 141.045 42.3734 141.045 57.6679V604.279C141.045 611.852 142.641 619.351 145.74 626.347C148.839 633.344 153.382 639.701 159.109 645.056C164.836 650.411 171.635 654.659 179.117 657.557C186.6 660.455 194.62 661.947 202.719 661.947H428.476C444.833 661.946 460.519 655.871 472.085 645.056C483.651 634.241 490.148 619.573 490.148 604.279V228.224H494.038L494.039 157.302Z" fill="#E6E6E6"/>
<path d="M430.964 14.9976H401.498C402.853 18.1044 403.37 21.4753 403.004 24.8131C402.638 28.151 401.399 31.3534 399.398 34.1382C397.396 36.923 394.692 39.2047 391.525 40.7823C388.358 42.3599 384.825 43.185 381.236 43.1849H251.903C248.314 43.1847 244.781 42.3594 241.614 40.7817C238.448 39.2039 235.744 36.9222 233.743 34.1374C231.741 31.3527 230.503 28.1504 230.137 24.8127C229.771 21.475 230.288 18.1043 231.643 14.9976H204.12C191.905 14.9976 180.19 19.5348 171.552 27.6112C162.915 35.6876 158.063 46.6416 158.063 58.0634V603.88C158.063 615.302 162.915 626.256 171.552 634.332C180.19 642.409 191.905 646.946 204.12 646.946H430.964C443.179 646.946 454.894 642.409 463.532 634.332C472.169 626.256 477.021 615.302 477.021 603.88V58.0625C477.021 46.6409 472.168 35.6871 463.531 27.6109C454.894 19.5347 443.179 14.9976 430.964 14.9976Z" fill="white"/>
<path d="M288.636 232.423C288.635 228.608 289.709 224.86 291.75 221.556C293.791 218.252 296.726 215.51 300.261 213.604C296.728 211.696 292.72 210.691 288.64 210.691C284.56 210.69 280.552 211.694 277.019 213.601C273.486 215.508 270.551 218.252 268.511 221.556C266.471 224.859 265.397 228.607 265.397 232.422C265.397 236.237 266.471 239.984 268.511 243.288C270.551 246.592 273.486 249.335 277.019 251.242C280.552 253.15 284.56 254.153 288.64 254.153C292.72 254.153 296.728 253.148 300.261 251.24C296.726 249.335 293.791 246.592 291.75 243.289C289.709 239.986 288.635 236.238 288.636 232.423Z" fill="#CCCCCC"/>
<path d="M317.852 232.423C317.851 228.608 318.925 224.86 320.966 221.556C323.007 218.252 325.943 215.509 329.477 213.604C325.944 211.696 321.937 210.691 317.857 210.691C313.777 210.69 309.769 211.694 306.235 213.601C302.702 215.508 299.767 218.252 297.727 221.556C295.687 224.859 294.613 228.607 294.613 232.422C294.613 236.237 295.687 239.984 297.727 243.288C299.767 246.592 302.702 249.335 306.235 251.242C309.769 253.15 313.777 254.153 317.857 254.153C321.937 254.153 325.944 253.148 329.477 251.24C325.943 249.335 323.008 246.592 320.967 243.289C318.926 239.986 317.852 236.238 317.852 232.423Z" fill="#CCCCCC"/>
<path d="M346.405 254.153C359.241 254.153 369.646 244.424 369.646 232.422C369.646 220.42 359.241 210.691 346.405 210.691C333.57 210.691 323.165 220.42 323.165 232.422C323.165 244.424 333.57 254.153 346.405 254.153Z" fill="#34A853"/>
<path d="M385.246 300.297H249.795C248.506 300.296 247.27 299.816 246.358 298.963C245.446 298.111 244.933 296.955 244.932 295.749V169.095C244.933 167.89 245.446 166.734 246.358 165.881C247.27 165.028 248.506 164.549 249.795 164.547H385.246C386.535 164.549 387.772 165.028 388.684 165.881C389.595 166.734 390.108 167.89 390.11 169.095V295.749C390.108 296.955 389.595 298.111 388.684 298.963C387.772 299.816 386.535 300.296 385.246 300.297ZM249.795 166.368C249.022 166.368 248.28 166.656 247.733 167.168C247.186 167.679 246.878 168.373 246.877 169.096V295.75C246.878 296.473 247.186 297.167 247.733 297.678C248.28 298.19 249.022 298.478 249.795 298.478H385.246C386.02 298.478 386.761 298.19 387.308 297.678C387.856 297.167 388.163 296.473 388.164 295.75V169.096C388.163 168.373 387.856 167.679 387.308 167.168C386.761 166.656 386.02 166.368 385.246 166.368H249.795Z" fill="#CCCCCC"/>
<path d="M415.49 397.383H207.75V399.202H415.49V397.383Z" fill="#CCCCCC"/>
<path d="M214.31 386.024C217.933 386.024 220.871 383.278 220.871 379.89C220.871 376.502 217.933 373.755 214.31 373.755C210.687 373.755 207.75 376.502 207.75 379.89C207.75 383.278 210.687 386.024 214.31 386.024Z" fill="#34A853"/>
<path d="M415.49 458.724H207.75V460.544H415.49V458.724Z" fill="#CCCCCC"/>
<path d="M214.31 447.366C217.933 447.366 220.871 444.62 220.871 441.232C220.871 437.844 217.933 435.097 214.31 435.097C210.687 435.097 207.75 437.844 207.75 441.232C207.75 444.62 210.687 447.366 214.31 447.366Z" fill="#34A853"/>
<path d="M411.688 528.577H346.036C344.902 528.576 343.815 528.154 343.013 527.404C342.211 526.654 341.76 525.638 341.759 524.577V503.062C341.76 502.001 342.211 500.985 343.013 500.235C343.815 499.485 344.902 499.063 346.036 499.062H411.688C412.822 499.063 413.909 499.485 414.711 500.235C415.513 500.985 415.964 502.001 415.965 503.062V524.577C415.964 525.638 415.513 526.654 414.711 527.404C413.909 528.154 412.822 528.576 411.688 528.577Z" fill="#34A853"/>
<path d="M235.71 386.024C239.334 386.024 242.271 383.278 242.271 379.89C242.271 376.502 239.334 373.755 235.71 373.755C232.087 373.755 229.15 376.502 229.15 379.89C229.15 383.278 232.087 386.024 235.71 386.024Z" fill="#34A853"/>
<path d="M257.111 386.024C260.734 386.024 263.671 383.278 263.671 379.89C263.671 376.502 260.734 373.755 257.111 373.755C253.487 373.755 250.55 376.502 250.55 379.89C250.55 383.278 253.487 386.024 257.111 386.024Z" fill="#34A853"/>
<path d="M235.71 447.366C239.334 447.366 242.271 444.62 242.271 441.232C242.271 437.844 239.334 435.097 235.71 435.097C232.087 435.097 229.15 437.844 229.15 441.232C229.15 444.62 232.087 447.366 235.71 447.366Z" fill="#34A853"/>
<path d="M257.111 447.366C260.734 447.366 263.671 444.62 263.671 441.232C263.671 437.844 260.734 435.097 257.111 435.097C253.487 435.097 250.55 437.844 250.55 441.232C250.55 444.62 253.487 447.366 257.111 447.366Z" fill="#34A853"/>
<path d="M536.742 435.032C537.208 435.231 537.657 435.465 538.083 435.732L580.716 418.717L582.238 408.216L599.273 408.119L598.267 432.203L541.995 446.118C541.877 446.484 541.735 446.843 541.57 447.192C540.757 448.815 539.448 450.178 537.809 451.108C536.171 452.038 534.274 452.495 532.359 452.421C530.443 452.347 528.594 451.745 527.043 450.691C525.492 449.637 524.308 448.179 523.641 446.498C522.974 444.818 522.853 442.99 523.292 441.245C523.732 439.5 524.714 437.916 526.113 436.691C527.513 435.466 529.269 434.655 531.16 434.36C533.051 434.065 534.993 434.298 536.742 435.032Z" fill="#FFB8B8"/>
<path d="M605.468 653.285H593.815L588.272 611.255L605.47 611.256L605.468 653.285Z" fill="#FFB8B8"/>
<path d="M585.491 650.171H607.965V663.402H571.341C571.341 659.893 572.832 656.528 575.485 654.047C578.139 651.565 581.738 650.171 585.491 650.171Z" fill="#1C2434"/>
<path d="M650.79 650.206L639.192 651.274L629.267 609.956L646.384 608.379L650.79 650.206Z" fill="#FFB8B8"/>
<path d="M630.583 648.938L652.948 646.879L654.335 660.046L617.888 663.403C617.706 661.674 617.889 659.928 618.429 658.265C618.968 656.602 619.853 655.055 621.032 653.712C622.21 652.369 623.661 651.256 625.299 650.437C626.938 649.618 628.733 649.109 630.583 648.938Z" fill="#1C2434"/>
<path d="M608.712 363.638C621.606 363.638 632.058 353.864 632.058 341.808C632.058 329.752 621.606 319.978 608.712 319.978C595.818 319.978 585.366 329.752 585.366 341.808C585.366 353.864 595.818 363.638 608.712 363.638Z" fill="#FFB8B8"/>
<path d="M591.211 644.785C590.21 644.787 589.24 644.459 588.472 643.858C587.704 643.257 587.188 642.421 587.015 641.499C580.983 610.19 561.267 507.819 560.796 504.983C560.785 504.918 560.78 504.852 560.781 504.786V497.153C560.78 496.875 560.873 496.604 561.046 496.378L563.651 492.967C563.775 492.803 563.937 492.668 564.125 492.571C564.314 492.475 564.523 492.421 564.738 492.412C579.587 491.761 628.218 489.853 630.567 492.598C632.927 495.356 632.093 503.714 631.902 505.361L631.911 505.533L653.76 636.182C653.931 637.224 653.656 638.287 652.995 639.141C652.334 639.995 651.341 640.571 650.229 640.746L636.582 642.848C635.566 643 634.525 642.807 633.648 642.302C632.772 641.798 632.118 641.016 631.806 640.099C627.585 627.488 613.433 585.066 608.528 568.651C608.497 568.547 608.427 568.457 608.331 568.398C608.234 568.339 608.118 568.315 608.004 568.33C607.89 568.345 607.785 568.398 607.71 568.48C607.635 568.562 607.595 568.667 607.596 568.775C607.841 584.422 608.433 624.345 608.638 638.134L608.66 639.619C608.669 640.624 608.274 641.596 607.554 642.343C606.834 643.089 605.84 643.556 604.769 643.651L591.611 644.769C591.477 644.78 591.343 644.785 591.211 644.785Z" fill="#1C2434"/>
<path d="M593.896 372.221C589.822 374.486 587.384 378.648 585.985 382.883C583.395 390.723 581.836 398.829 581.342 407.022L579.864 431.553L561.561 496.586C577.424 509.136 586.575 506.284 607.928 496.018C629.282 485.752 631.722 499.441 631.722 499.441L635.992 444.106L642.093 383.639C640.724 382.097 639.174 380.704 637.472 379.485C631.833 375.385 625.272 372.535 618.284 371.15C611.296 369.765 604.063 369.881 597.13 371.49L593.896 372.221Z" fill="#34A853"/>
<path d="M587.951 448.167C588.443 448.34 588.92 448.549 589.377 448.792L631.532 429.063L632.231 418.375L649.62 417.254L650.552 441.618L594.218 459.038C593.758 460.883 592.708 462.553 591.208 463.827C589.708 465.1 587.829 465.916 585.821 466.167C583.813 466.417 581.771 466.09 579.967 465.229C578.162 464.368 576.681 463.014 575.72 461.346C574.758 459.679 574.363 457.777 574.586 455.894C574.808 454.012 575.639 452.237 576.966 450.806C578.294 449.375 580.056 448.356 582.018 447.885C583.98 447.413 586.05 447.512 587.951 448.167Z" fill="#FFB8B8"/>
<path d="M641.787 383.916C652.159 387.339 653.986 424.422 653.986 424.422C641.784 418.147 627.142 428.415 627.142 428.415C627.142 428.415 624.091 418.717 620.431 406.167C619.325 402.636 619.193 398.902 620.047 395.311C620.9 391.721 622.711 388.39 625.311 385.63C625.311 385.63 631.416 380.491 641.787 383.916Z" fill="#34A853"/>
<path d="M629.645 347.581C626.736 345.405 622.768 349.36 622.768 349.36L620.44 329.777C620.44 329.777 605.896 331.406 596.588 329.233C587.28 327.061 585.826 337.122 585.826 337.122C585.346 333.058 585.248 328.962 585.535 324.882C586.116 319.986 593.679 315.09 607.06 311.826C620.44 308.562 627.421 322.706 627.421 322.706C636.73 327.057 632.553 349.757 629.645 347.581Z" fill="#1C2434"/>
</svg>
